<?xml version="1.0" standalone="no"?>
<!DOCTYPE svg PUBLIC "-//W3C//DTD SVG 20010904//EN"
 "http://www.w3.org/TR/2001/REC-SVG-20010904/DTD/svg10.dtd">
<svg version="1.0" xmlns="http://www.w3.org/2000/svg"
 width="944.000000pt" height="944.000000pt" viewBox="0 0 944.000000 944.000000"
 preserveAspectRatio="xMidYMid meet">
<metadata>
Created by potrace 1.14, written by Peter Selinger 2001-2017
</metadata>
<g transform="translate(0.000000,944.000000) scale(0.100000,-0.100000)"
fill="#000000" stroke="none">
<path d="M7328 9185 c-3 -4 -38 -8 -168 -21 -71 -7 -104 -11 -110 -14 -3 -1
-8 -2 -11 -2 -7 1 -220 -35 -259 -43 -14 -4 -34 -8 -45 -10 -85 -14 -101 -18
-108 -22 -4 -2 -20 -7 -35 -9 -46 -8 -183 -44 -272 -71 -46 -14 -91 -26 -100
-28 -22 -5 -170 -55 -205 -70 -16 -7 -41 -16 -55 -20 -14 -3 -36 -11 -50 -17
-14 -5 -38 -16 -55 -23 -16 -7 -57 -23 -90 -35 -33 -13 -63 -28 -66 -33 -3 -5
-10 -9 -15 -9 -17 -1 -39 -10 -120 -49 -44 -21 -85 -39 -91 -39 -6 0 -13 -3
-15 -7 -1 -5 -37 -25 -78 -45 -41 -21 -102 -54 -135 -73 -33 -19 -67 -38 -75
-42 -25 -12 -163 -96 -197 -121 -17 -12 -36 -22 -41 -22 -6 0 -12 -3 -14 -7
-5 -12 -95 -73 -106 -73 -6 0 -12 -4 -14 -8 -1 -4 -46 -40 -98 -78 -346 -257
-650 -549 -925 -889 l-113 -140 -204 1 c-112 1 -208 -3 -215 -8 -7 -6 -14 -5
-18 2 -3 6 -11 8 -16 4 -6 -3 -36 -8 -69 -10 -55 -3 -230 -28 -295 -41 -16 -3
-41 -7 -55 -8 -14 -1 -25 -3 -25 -4 0 -3 -28 -9 -60 -15 -11 -2 -40 -9 -65
-15 -25 -7 -52 -14 -60 -16 -8 -2 -16 -4 -17 -5 -3 -3 -7 -4 -57 -14 -21 -4
-46 -11 -55 -16 -9 -5 -43 -16 -76 -26 -33 -9 -66 -21 -72 -27 -7 -5 -13 -7
-13 -4 0 5 -51 -14 -150 -56 -14 -6 -27 -11 -30 -12 -10 -3 -100 -44 -157 -72
-60 -29 -248 -132 -295 -161 -14 -9 -48 -30 -75 -46 -26 -16 -54 -36 -61 -43
-7 -7 -17 -13 -22 -13 -5 0 -15 -6 -22 -12 -7 -7 -61 -49 -118 -92 -58 -44
-106 -83 -108 -88 -2 -4 -11 -8 -20 -8 -8 0 -12 -3 -9 -6 3 -4 -6 -16 -21 -27
-80 -60 -322 -306 -405 -410 -15 -19 -41 -50 -57 -68 -16 -19 -30 -37 -30 -40
0 -3 -9 -17 -21 -30 -57 -65 -277 -416 -294 -468 -3 -12 -11 -21 -16 -21 -5 0
-9 -6 -9 -13 0 -7 -18 -48 -40 -92 -22 -44 -40 -83 -40 -86 0 -4 -12 -33 -27
-65 -14 -33 -27 -63 -28 -69 0 -5 -8 -27 -18 -49 -9 -21 -17 -45 -17 -52 0 -8
-5 -14 -12 -14 -6 0 -9 -3 -5 -6 3 -3 1 -18 -5 -33 -5 -14 -11 -33 -13 -41 -2
-8 -18 -61 -34 -118 -17 -56 -32 -115 -35 -130 -2 -15 -5 -28 -6 -29 -3 -4 -5
-10 -15 -63 -5 -25 -9 -47 -10 -50 -1 -3 -5 -25 -9 -50 -5 -25 -10 -54 -12
-65 -2 -11 -7 -42 -10 -70 -3 -27 -8 -61 -10 -75 -12 -68 -18 -206 -18 -405 0
-223 8 -362 29 -495 3 -19 8 -51 11 -70 3 -19 9 -53 14 -75 5 -22 12 -56 15
-75 3 -19 9 -44 12 -55 4 -11 7 -27 9 -35 5 -38 15 -84 22 -94 3 -6 8 -19 9
-29 6 -39 79 -256 108 -322 7 -16 20 -48 28 -70 8 -22 36 -85 62 -140 26 -55
48 -102 48 -105 0 -3 14 -27 30 -55 17 -27 37 -64 46 -80 16 -30 91 -154 121
-199 46 -70 71 -105 96 -137 16 -20 36 -47 44 -59 8 -13 25 -33 38 -46 12 -13
22 -26 22 -30 0 -19 266 -298 385 -404 33 -29 75 -66 92 -81 18 -16 88 -69
155 -119 68 -49 128 -94 135 -100 7 -5 15 -10 18 -10 4 0 21 -10 38 -23 18
-12 41 -27 52 -34 132 -78 178 -103 290 -158 142 -70 164 -79 275 -123 105
-42 315 -108 400 -127 8 -2 15 -4 15 -5 0 -1 7 -3 15 -5 8 -1 60 -12 115 -23
55 -12 123 -24 150 -29 54 -8 64 -9 68 -12 1 -1 22 -4 47 -6 25 -2 77 -7 115
-10 39 -3 93 -8 120 -10 67 -6 303 -6 390 0 124 8 260 21 260 25 0 0 18 3 40
5 22 3 51 7 65 9 14 2 45 7 70 11 25 4 46 8 47 9 1 1 -10 15 -25 31 -15 17
-47 55 -72 85 -25 30 -47 57 -50 60 -40 40 -320 420 -320 436 0 3 -8 13 -18
24 -9 10 -26 36 -37 57 -11 21 -23 40 -26 43 -4 3 -16 21 -26 40 -11 19 -43
74 -72 122 -28 48 -51 91 -51 97 0 6 -4 11 -8 11 -9 0 -48 81 -44 93 1 4 -2 7
-6 7 -13 0 -154 300 -220 465 -42 107 -35 96 -61 98 -11 1 -21 4 -21 7 0 3
-12 7 -28 8 -97 7 -370 123 -522 221 -30 19 -63 40 -72 46 -93 56 -300 256
-393 380 -63 84 -155 230 -155 246 0 5 -5 9 -12 9 -6 0 -9 3 -5 6 3 3 -8 32
-24 64 -16 31 -29 61 -29 65 0 4 -6 21 -14 38 -13 30 -27 71 -54 157 -16 50
-50 234 -58 310 -7 72 -7 275 1 330 2 19 7 54 10 77 12 106 93 403 115 423 3
3 6 11 8 18 2 13 68 147 94 192 39 69 54 90 61 90 4 0 7 5 7 11 0 6 30 50 67
98 89 113 227 250 319 317 14 10 32 25 40 32 26 24 223 139 278 163 31 12 56
26 56 29 0 4 6 7 13 8 6 0 53 15 102 32 93 33 138 47 190 57 48 9 60 11 60 13
0 1 9 3 20 5 109 16 173 20 310 20 146 0 205 -4 305 -21 19 -3 44 -7 55 -9 31
-4 108 -25 130 -34 11 -5 52 -18 90 -31 39 -12 88 -31 109 -41 22 -11 44 -19
48 -19 5 0 26 -11 47 -24 21 -14 42 -22 45 -19 3 4 6 1 6 -5 0 -7 4 -12 10
-12 13 0 114 -62 118 -72 2 -4 8 -8 14 -8 16 0 176 -129 248 -200 36 -36 92
-96 124 -135 80 -97 83 -100 97 -127 6 -13 15 -25 19 -28 21 -16 126 -214 159
-298 10 -26 22 -56 26 -67 5 -11 9 -23 10 -27 2 -5 3 -9 5 -10 1 -2 3 -10 5
-18 2 -8 11 -40 20 -70 9 -30 18 -66 21 -80 3 -14 9 -40 14 -59 5 -19 7 -38 4
-43 -3 -4 -2 -8 3 -8 4 0 8 -12 9 -27 1 -16 4 -59 7 -98 19 -205 2 -408 -48
-600 -35 -130 -75 -236 -133 -350 -51 -100 -82 -156 -92 -165 -3 -3 -14 -18
-24 -35 -11 -16 -23 -34 -28 -40 -4 -5 -29 -37 -55 -70 -27 -33 -65 -78 -85
-100 -21 -22 -38 -44 -38 -48 0 -9 50 -99 60 -107 3 -3 11 -16 18 -30 13 -28
34 -63 42 -70 3 -3 21 -30 40 -60 19 -30 38 -59 43 -65 4 -5 41 -57 83 -114
82 -113 77 -106 131 -172 139 -168 197 -232 348 -383 94 -94 224 -214 273
-251 7 -5 21 -18 30 -27 20 -19 23 -17 117 70 92 84 172 147 289 227 177 122
502 279 641 310 6 1 17 5 25 8 41 16 221 60 295 72 59 10 149 21 236 30 65 7
338 8 394 1 17 -2 64 -7 105 -11 41 -4 84 -9 95 -12 11 -2 33 -6 50 -9 54 -8
236 -55 324 -83 180 -59 387 -153 516 -235 140 -89 315 -217 323 -238 2 -4 8
-8 13 -8 5 0 61 -52 125 -116 l116 -115 -47 88 c-42 79 -188 311 -204 323 -3
3 -19 23 -35 45 -17 22 -42 53 -58 69 -15 17 -28 34 -28 38 0 12 -268 279
-339 338 -29 25 -60 46 -67 48 -8 2 -14 7 -14 11 0 5 -19 21 -42 37 -24 16
-45 32 -48 35 -3 3 -20 14 -37 24 -18 11 -33 23 -33 27 0 4 -4 8 -9 8 -5 0
-38 18 -72 40 -35 21 -89 52 -119 68 -30 16 -71 38 -90 49 -31 17 -97 47 -200
90 -19 8 -44 19 -55 24 -34 15 -257 87 -325 104 -65 17 -84 21 -130 30 -14 2
-50 10 -80 16 -30 6 -70 12 -87 12 -18 1 -33 4 -33 7 0 7 -40 9 -303 14 -130
2 -237 8 -237 12 0 5 6 27 12 49 6 22 12 43 14 48 1 4 2 8 4 10 1 1 3 9 5 17
2 8 16 62 30 120 14 58 28 116 32 130 12 47 13 55 18 90 2 19 6 44 9 55 3 17
13 83 21 145 13 96 20 234 19 420 0 236 -6 336 -29 468 -3 16 -7 44 -9 63 -10
72 -18 116 -32 179 -9 36 -17 72 -19 80 -12 54 -47 182 -60 219 -8 24 -12 47
-9 52 3 5 0 9 -5 9 -6 0 -11 6 -11 13 0 10 -39 119 -78 217 -5 14 -10 28 -11
32 -7 31 -156 321 -218 423 -78 129 -76 127 -95 149 -10 11 -18 26 -18 33 0 7
-4 13 -8 13 -5 0 -15 12 -23 28 -8 15 -16 29 -19 32 -3 3 -35 43 -72 90 -70
91 -78 100 -166 199 -112 126 -332 336 -373 355 -10 5 -19 12 -19 17 0 4 -24
24 -52 45 -29 20 -58 42 -63 48 -6 6 -18 16 -26 21 -9 6 -67 44 -130 86 -63
42 -130 86 -150 97 -75 42 -84 47 -89 52 -3 3 -50 27 -105 54 -55 26 -110 54
-122 62 l-21 13 21 58 c12 32 24 60 27 63 3 3 11 23 19 45 7 22 29 71 47 109
19 37 34 74 34 81 0 7 3 15 8 17 4 2 36 59 71 128 114 223 300 504 429 647 17
20 32 39 32 44 0 12 329 340 375 374 22 17 53 42 70 56 67 60 260 199 275 199
6 0 10 3 10 8 0 4 21 19 48 35 26 15 54 32 62 37 107 68 454 241 516 256 13 3
24 10 24 15 0 5 3 8 8 7 12 -4 126 36 134 47 4 5 8 7 8 3 0 -3 30 4 68 17 37
12 96 31 132 40 71 19 91 30 61 32 -11 1 -21 0 -23 -2z"/>
</g>
</svg>
