<?xml version="1.0" encoding="UTF-8" standalone="no"?>
<!DOCTYPE svg PUBLIC "-//W3C//DTD SVG 1.1//EN" "http://www.w3.org/Graphics/SVG/1.1/DTD/svg11.dtd">
<svg width="100%" height="100%" viewBox="0 0 472 447" version="1.1" xmlns="http://www.w3.org/2000/svg" xmlns:xlink="http://www.w3.org/1999/xlink" xml:space="preserve" xmlns:serif="http://www.serif.com/" style="fill-rule:evenodd;clip-rule:evenodd;stroke-linejoin:round;stroke-miterlimit:2;">
    <g transform="matrix(1,0,0,1,-3481.27,-685.759)">
        <g transform="matrix(4.16667,0,0,4.16667,0,-1689.81)">
            <path d="M876.96,594.395C877.793,594.395 878.619,594.423 879.44,594.472C889.68,580.863 905.365,571.602 924.418,570.137C908.931,574.188 899.045,584.388 893.944,598.044C908.349,604.552 918.416,619.064 918.416,635.851C918.416,640.43 917.665,644.838 916.283,648.962C921.639,648.497 927.232,649.453 932.744,651.997C939.981,655.335 945.464,660.946 948.75,667.595C946.079,664.547 942.748,662.003 938.841,660.197C927.326,654.883 914.113,657.558 905.494,665.898L905.481,665.885C905.311,666.047 905.142,666.208 904.97,666.366C899.698,662.03 895.23,656.749 891.83,650.784C895.669,646.961 898.051,641.676 898.051,635.851C898.051,624.234 888.577,614.76 876.96,614.76C865.343,614.76 855.868,624.234 855.868,635.851C855.868,646.071 863.203,654.632 872.875,656.542C875.706,663.941 879.858,670.695 885.043,676.511C882.427,677.032 879.726,677.308 876.96,677.308C854.127,677.308 835.504,658.685 835.504,635.851C835.504,613.018 854.127,594.395 876.96,594.395" style="fill:rgb(239,124,0);"/>
        </g>
    </g>
</svg>
