<?xml version="1.0" encoding="UTF-8" standalone="no"?><!DOCTYPE svg PUBLIC "-//W3C//DTD SVG 1.1//EN" "http://www.w3.org/Graphics/SVG/1.1/DTD/svg11.dtd"><svg width="100%" height="100%" viewBox="0 0 32 32" version="1.1" xmlns="http://www.w3.org/2000/svg" xmlns:xlink="http://www.w3.org/1999/xlink" xml:space="preserve" xmlns:serif="http://www.serif.com/" style="fill-rule:evenodd;clip-rule:evenodd;stroke-linejoin:round;stroke-miterlimit:2;"><circle cx="16" cy="16" r="16" style="fill:#264796;"/><path d="M13.634,20.816c0,-0.616 0.072,-1.232 0.217,-1.848c0.145,-0.616 0.362,-1.176 0.651,-1.68c0.233,-0.476 0.488,-0.852 0.763,-1.127c0.275,-0.275 0.593,-0.558 0.952,-0.847c0.359,-0.289 0.786,-0.695 1.281,-1.218c0.383,-0.42 0.637,-0.833 0.763,-1.239c0.126,-0.406 0.189,-0.852 0.189,-1.337c0,-0.252 -0.026,-0.495 -0.077,-0.728c-0.051,-0.233 -0.147,-0.439 -0.287,-0.616c-0.224,-0.308 -0.52,-0.53 -0.889,-0.665c-0.369,-0.135 -0.763,-0.203 -1.183,-0.203c-0.317,-0 -0.628,0.037 -0.931,0.112c-0.303,0.075 -0.562,0.196 -0.777,0.364c-0.261,0.196 -0.455,0.443 -0.581,0.742c-0.126,0.299 -0.184,0.63 -0.175,0.994l-4.032,-0c0.112,-0.999 0.397,-1.913 0.854,-2.744c0.457,-0.831 1.05,-1.484 1.778,-1.96c0.532,-0.355 1.12,-0.625 1.764,-0.812c0.644,-0.187 1.288,-0.28 1.932,-0.28c1.064,-0 2.067,0.166 3.01,0.497c0.943,0.331 1.722,0.875 2.338,1.631c0.411,0.476 0.728,1.029 0.952,1.659c0.224,0.63 0.336,1.262 0.336,1.897c0,1.017 -0.229,1.941 -0.686,2.772c-0.457,0.831 -1.022,1.605 -1.694,2.324c-0.289,0.308 -0.548,0.576 -0.777,0.805c-0.229,0.229 -0.434,0.443 -0.616,0.644c-0.182,0.201 -0.343,0.408 -0.483,0.623c-0.261,0.429 -0.42,0.779 -0.476,1.05c-0.056,0.271 -0.084,0.667 -0.084,1.19l-4.032,-0Zm0.028,5.46l-0,-4.032l4.004,-0l0,4.032l-4.004,-0Z" style="fill:#fff;fill-rule:nonzero;"/></svg>