<?xml version="1.0" encoding="UTF-8" standalone="no"?><!DOCTYPE svg PUBLIC "-//W3C//DTD SVG 1.1//EN" "http://www.w3.org/Graphics/SVG/1.1/DTD/svg11.dtd"><svg width="100%" height="100%" viewBox="0 0 122 122" version="1.1" xmlns="http://www.w3.org/2000/svg" xmlns:xlink="http://www.w3.org/1999/xlink" xml:space="preserve" xmlns:serif="http://www.serif.com/" style="fill-rule:evenodd;clip-rule:evenodd;stroke-linejoin:round;stroke-miterlimit:2;"><g><g><path d="M121.186,20c-0,-11.046 -8.955,-20 -20,-20l-81.186,0c-11.046,0 -20,8.954 -20,20l-0,81.186c0,11.045 8.954,20 20,20l81.186,-0c11.045,-0 20,-8.955 20,-20l-0,-81.186Z" style="fill:#ef7c02;"/></g></g><path d="M54.125,77.452l30.643,-30.749l-4.559,-4.56l-26.084,26.19l-12.618,-12.618l-4.559,4.56l17.177,17.177Zm-25.342,21.313c-1.696,-0 -3.181,-0.637 -4.453,-1.909c-1.273,-1.272 -1.909,-2.757 -1.909,-4.453l0,-63.62c0,-1.696 0.636,-3.181 1.909,-4.453c1.272,-1.273 2.757,-1.909 4.453,-1.909l63.62,0c1.696,0 3.181,0.636 4.453,1.909c1.272,1.272 1.909,2.757 1.909,4.453l-0,63.62c-0,1.696 -0.637,3.181 -1.909,4.453c-1.272,1.272 -2.757,1.909 -4.453,1.909l-63.62,-0Z" style="fill:#fff;fill-rule:nonzero;"/></svg>