<?xml version="1.0" encoding="UTF-8" standalone="no"?><!DOCTYPE svg PUBLIC "-//W3C//DTD SVG 1.1//EN" "http://www.w3.org/Graphics/SVG/1.1/DTD/svg11.dtd"><svg width="100%" height="100%" viewBox="0 0 122 122" version="1.1" xmlns="http://www.w3.org/2000/svg" xmlns:xlink="http://www.w3.org/1999/xlink" xml:space="preserve" xmlns:serif="http://www.serif.com/" style="fill-rule:evenodd;clip-rule:evenodd;stroke-linejoin:round;stroke-miterlimit:2;"><path d="M121.186,20c-0,-11.046 -8.955,-20 -20,-20l-81.186,0c-11.046,0 -20,8.954 -20,20l0,81.186c0,11.045 8.954,20 20,20l81.186,-0c11.045,-0 20,-8.955 20,-20l-0,-81.186Z" style="fill:#ef7c02;"/><path d="M60.593,60.467c-5.555,-0 -10.099,-1.768 -13.634,-5.302c-3.534,-3.535 -5.301,-8.079 -5.301,-13.634c-0,-5.554 1.767,-10.098 5.301,-13.633c3.535,-3.535 8.079,-5.302 13.634,-5.302c5.554,0 10.099,1.767 13.633,5.302c3.535,3.535 5.302,8.079 5.302,13.633c0,5.555 -1.767,10.099 -5.302,13.634c-3.534,3.534 -8.079,5.302 -13.633,5.302Zm-40.395,40.521l-0,-11.866c-0,-3.198 0.799,-5.933 2.398,-8.205c1.599,-2.273 3.661,-3.998 6.186,-5.176c5.638,-2.525 11.045,-4.418 16.221,-5.681c5.175,-1.262 10.372,-1.893 15.59,-1.893c5.218,-0 10.393,0.652 15.527,1.957c5.133,1.304 10.519,3.177 16.158,5.617c2.609,1.178 4.713,2.903 6.312,5.176c1.599,2.272 2.398,5.007 2.398,8.205l0,11.866l-80.79,0Z" style="fill:#fff;fill-rule:nonzero;"/></svg>