<?xml version="1.0" encoding="UTF-8" standalone="no"?><!DOCTYPE svg PUBLIC "-//W3C//DTD SVG 1.1//EN" "http://www.w3.org/Graphics/SVG/1.1/DTD/svg11.dtd"><svg width="100%" height="100%" viewBox="0 0 122 122" version="1.1" xmlns="http://www.w3.org/2000/svg" xmlns:xlink="http://www.w3.org/1999/xlink" xml:space="preserve" xmlns:serif="http://www.serif.com/" style="fill-rule:evenodd;clip-rule:evenodd;stroke-linejoin:round;stroke-miterlimit:2;"><path d="M121.186,20c-0,-11.046 -8.955,-20 -20,-20l-81.186,0c-11.046,0 -20,8.954 -20,20l0,81.186c0,11.045 8.954,20 20,20l81.186,-0c11.045,-0 20,-8.955 20,-20l-0,-81.186Z" style="fill:#ef7c02;"/><path d="M33,103.044c-1.698,-0 -3.184,-0.637 -4.458,-1.91c-1.273,-1.274 -1.91,-2.76 -1.91,-4.458l0,-72.167c0,-1.698 0.637,-3.183 1.91,-4.457c1.274,-1.273 2.76,-1.91 4.458,-1.91l55.186,-0c1.698,-0 3.184,0.637 4.457,1.91c1.274,1.274 1.911,2.759 1.911,4.457l-0,72.167c-0,1.698 -0.637,3.184 -1.911,4.458c-1.273,1.273 -2.759,1.91 -4.457,1.91l-55.186,-0Zm28.23,-50.305l10.294,-5.943l10.294,5.943l0,-28.23l-20.588,0l-0,28.23Z" style="fill:#fff;fill-rule:nonzero;"/></svg>