<?xml version="1.0" encoding="UTF-8" standalone="no"?><!DOCTYPE svg PUBLIC "-//W3C//DTD SVG 1.1//EN" "http://www.w3.org/Graphics/SVG/1.1/DTD/svg11.dtd"><svg width="100%" height="100%" viewBox="0 0 64 64" version="1.1" xmlns="http://www.w3.org/2000/svg" xmlns:xlink="http://www.w3.org/1999/xlink" xml:space="preserve" xmlns:serif="http://www.serif.com/" style="fill-rule:evenodd;clip-rule:evenodd;stroke-linejoin:round;stroke-miterlimit:2;"><rect id="Artboard1" x="0" y="0" width="64" height="64" style="fill:none;"/><g id="Artboard11" serif:id="Artboard1"><path d="M64,32c0,-2.76 -2.24,-5 -5,-5l-54,0c-2.76,0 -5,2.24 -5,5c0,2.76 2.24,5 5,5l54,0c2.76,0 5,-2.24 5,-5Z" style="fill:#fff;"/><path d="M62.537,28.463c-1.952,-1.951 -5.12,-1.951 -7.072,0l-21.213,21.214c-1.951,1.951 -1.951,5.119 0,7.071c1.952,1.951 5.12,1.951 7.071,-0l21.214,-21.213c1.951,-1.952 1.951,-5.12 -0,-7.072Z" style="fill:#fff;"/><path d="M62.537,35.537c1.951,-1.952 1.951,-5.12 -0,-7.072l-21.214,-21.213c-1.951,-1.951 -5.119,-1.951 -7.071,0c-1.951,1.952 -1.951,5.12 0,7.071l21.213,21.214c1.952,1.951 5.12,1.951 7.072,-0Z" style="fill:#fff;"/></g></svg>