<?xml version="1.0" encoding="UTF-8" standalone="no"?><!DOCTYPE svg PUBLIC "-//W3C//DTD SVG 1.1//EN" "http://www.w3.org/Graphics/SVG/1.1/DTD/svg11.dtd"><svg width="100%" height="100%" viewBox="0 0 122 122" version="1.1" xmlns="http://www.w3.org/2000/svg" xmlns:xlink="http://www.w3.org/1999/xlink" xml:space="preserve" xmlns:serif="http://www.serif.com/" style="fill-rule:evenodd;clip-rule:evenodd;stroke-linejoin:round;stroke-miterlimit:2;"><g><path d="M121.186,20c-0,-11.046 -8.955,-20 -20,-20l-81.186,0c-11.046,0 -20,8.954 -20,20l0,81.186c0,11.045 8.954,20 20,20l81.186,-0c11.045,-0 20,-8.955 20,-20l-0,-81.186Z" style="fill:#ef7c02;"/></g><path d="M30.896,101.272c-2.541,0 -5.043,-0.429 -7.509,-1.288c-2.465,-0.859 -4.632,-2.26 -6.5,-4.203c2.615,-0.896 4.483,-2.204 5.604,-3.922c1.12,-1.718 1.681,-4.034 1.681,-6.948c-0,-3.287 1.139,-6.07 3.418,-8.349c2.278,-2.279 5.061,-3.418 8.349,-3.418c3.287,0 6.07,1.139 8.348,3.418c2.279,2.279 3.418,5.062 3.418,8.349c0,4.781 -1.625,8.704 -4.874,11.767c-3.25,3.063 -7.229,4.594 -11.935,4.594Zm25.775,-26.559l-10.086,-10.646l42.136,-42.137c1.046,-1.046 2.204,-1.587 3.474,-1.625c1.27,-0.037 2.466,0.505 3.586,1.625l3.25,3.25c1.121,1.121 1.662,2.335 1.625,3.642c-0.037,1.308 -0.579,2.485 -1.625,3.53l-42.36,42.361Z" style="fill:#fff;fill-rule:nonzero;"/></svg>